<svg width="24" height="24" viewBox="0 0 24 24" fill="none" xmlns="http://www.w3.org/2000/svg">
<path d="M14 10C14.9889 10 15.9556 9.70676 16.7779 9.15735C17.6001 8.60794 18.241 7.82705 18.6194 6.91342C18.9978 5.99979 19.0969 4.99446 18.9039 4.02455C18.711 3.05465 18.2348 2.16373 17.5355 1.46447C16.8363 0.765205 15.9454 0.289002 14.9755 0.0960758C14.0055 -0.0968502 13.0002 0.00216641 12.0866 0.380605C11.173 0.759043 10.3921 1.3999 9.84265 2.22215C9.29325 3.0444 9 4.0111 9 5C9 6.32608 9.52678 7.59785 10.4645 8.53554C11.4021 9.47322 12.6739 10 14 10ZM14 12.5C10.6625 12.5 4 14.175 4 17.5V18.75C4 19.0815 4.1317 19.3995 4.36612 19.6339C4.60054 19.8683 4.91848 20 5.25 20H22.75C23.0815 20 23.3995 19.8683 23.6339 19.6339C23.8683 19.3995 24 19.0815 24 18.75V17.5C24 14.175 17.3375 12.5 14 12.5Z" fill="#6A35EE"/>
</svg>
