<svg width="24" height="24" viewBox="0 0 24 24" fill="none" xmlns="http://www.w3.org/2000/svg">
<path d="M16.444 10.9H7.556C7.26426 10.9 6.98447 11.0159 6.77818 11.2222C6.57189 11.4285 6.456 11.7083 6.456 12C6.456 12.2918 6.57189 12.5715 6.77818 12.7778C6.98447 12.9841 7.26426 13.1 7.556 13.1H16.445C16.7367 13.1 17.0165 12.9841 17.2228 12.7778C17.4291 12.5715 17.545 12.2918 17.545 12C17.545 11.7083 17.4291 11.4285 17.2228 11.2222C17.0165 11.0159 16.7367 10.9 16.445 10.9H16.444ZM19.777 3.20001H18.667V2.10001C18.667 1.80536 18.5499 1.52277 18.3416 1.31442C18.1332 1.10607 17.8507 0.989014 17.556 0.989014C17.2613 0.989014 16.9788 1.10607 16.7704 1.31442C16.5621 1.52277 16.445 1.80536 16.445 2.10001V3.20001H7.556V2.10001C7.556 1.80536 7.43895 1.52277 7.2306 1.31442C7.02224 1.10607 6.73966 0.989014 6.445 0.989014C6.15034 0.989014 5.86776 1.10607 5.6594 1.31442C5.45105 1.52277 5.334 1.80536 5.334 2.10001V3.20001H4.222C3.93165 3.19857 3.64385 3.25432 3.37505 3.3641C3.10624 3.47388 2.86169 3.63552 2.65536 3.83981C2.44902 4.0441 2.28495 4.28703 2.1725 4.55473C2.06006 4.82243 2.00144 5.10966 2 5.40001V20.8C2.00144 21.0904 2.06006 21.3776 2.1725 21.6453C2.28495 21.913 2.44902 22.1559 2.65536 22.3602C2.86169 22.5645 3.10624 22.7262 3.37505 22.8359C3.64385 22.9457 3.93165 23.0015 4.222 23H19.778C20.3638 23.0011 20.9263 22.7703 21.3426 22.3582C21.7589 21.946 21.9952 21.3858 22 20.8V5.40001C21.9952 4.8142 21.7589 4.25405 21.3426 3.84186C20.9263 3.42968 20.3638 3.19894 19.778 3.20001H19.777ZM18.667 20.8H5.333C5.04008 20.8006 4.75885 20.6852 4.55069 20.4791C4.34254 20.273 4.22438 19.9929 4.222 19.7V8.70001H19.778V19.7C19.7756 19.9929 19.6575 20.273 19.4493 20.4791C19.2412 20.6852 18.9599 20.8006 18.667 20.8V20.8ZM13.111 15.3H7.556C7.41155 15.3 7.26851 15.3285 7.13505 15.3837C7.00159 15.439 6.88033 15.5201 6.77818 15.6222C6.67604 15.7243 6.59501 15.8456 6.53973 15.9791C6.48445 16.1125 6.456 16.2556 6.456 16.4C6.456 16.5445 6.48445 16.6875 6.53973 16.821C6.59501 16.9544 6.67604 17.0757 6.77818 17.1778C6.88033 17.28 7.00159 17.361 7.13505 17.4163C7.26851 17.4716 7.41155 17.5 7.556 17.5H13.112C13.2565 17.5 13.3995 17.4716 13.533 17.4163C13.6664 17.361 13.7877 17.28 13.8898 17.1778C13.992 17.0757 14.073 16.9544 14.1283 16.821C14.1835 16.6875 14.212 16.5445 14.212 16.4C14.212 16.2556 14.1835 16.1125 14.1283 15.9791C14.073 15.8456 13.992 15.7243 13.8898 15.6222C13.7877 15.5201 13.6664 15.439 13.533 15.3837C13.3995 15.3285 13.2565 15.3 13.112 15.3H13.111Z" fill="#6A35EE"/>
</svg>
