<svg width="24" height="24" viewBox="0 0 24 24" fill="none" xmlns="http://www.w3.org/2000/svg">
<path d="M19.66 3.98999C18.4717 3.1983 17.0331 2.87276 15.6197 3.07573C14.2063 3.2787 12.9175 3.9959 12 5.08999C11.0845 3.99285 9.7954 3.27339 8.38102 3.07028C6.96664 2.86717 5.52714 3.19479 4.33997 3.98999C3.64417 4.47483 3.07058 5.11476 2.66448 5.85927C2.25839 6.60378 2.0309 7.43249 1.99997 8.27999C1.85997 12.16 5.29997 15.27 10.55 20.04L10.65 20.13C11.0193 20.4631 11.4995 20.6466 11.9969 20.6448C12.4943 20.643 12.9731 20.4558 13.34 20.12L13.45 20.02C18.7 15.26 22.13 12.15 22 8.26999C21.9678 7.42414 21.7397 6.59731 21.3337 5.8546C20.9276 5.11189 20.3547 4.4736 19.66 3.98999V3.98999ZM12.1 18.55L12 18.65L11.9 18.55C7.13997 14.24 3.99997 11.39 3.99997 8.49999C3.98873 8.03729 4.07158 7.57714 4.24349 7.14741C4.4154 6.71769 4.6728 6.32736 5.00007 6.00009C5.32734 5.67282 5.71767 5.41542 6.14739 5.24351C6.57711 5.0716 7.03727 4.98875 7.49997 4.99999C8.26004 5.00369 9.00255 5.2289 9.63661 5.64805C10.2707 6.06721 10.7688 6.66213 11.07 7.35999H12.94C13.2379 6.66185 13.7339 6.06628 14.3666 5.64687C14.9992 5.22745 15.7409 5.00257 16.5 4.99999C16.9627 4.98875 17.4228 5.0716 17.8525 5.24351C18.2823 5.41542 18.6726 5.67282 18.9999 6.00009C19.3271 6.32736 19.5845 6.71769 19.7564 7.14741C19.9284 7.57714 20.0112 8.03729 20 8.49999C20 11.39 16.86 14.24 12.1 18.55Z" fill="#6A35EE"/>
</svg>
