<svg width="24" height="24" viewBox="0 0 24 24" fill="none" xmlns="http://www.w3.org/2000/svg">
<path d="M9.89797 19.594V14.226H14.098V19.594C14.0956 19.8756 14.2048 20.1467 14.4018 20.348C14.5987 20.5492 14.8674 20.6643 15.149 20.668H18.301C18.5826 20.6643 18.8512 20.5492 19.0482 20.348C19.2451 20.1467 19.3544 19.8756 19.352 19.594V12.079H21.138C21.2458 12.0776 21.3507 12.0437 21.4388 11.9816C21.527 11.9194 21.5943 11.8321 21.6318 11.731C21.6694 11.6299 21.6754 11.5198 21.6492 11.4152C21.623 11.3106 21.5658 11.2164 21.485 11.145L12.704 3.062C12.5118 2.8859 12.2606 2.78821 12 2.78821C11.7393 2.78821 11.4881 2.8859 11.296 3.062L2.51197 11.143C2.43222 11.2149 2.3759 11.3091 2.3503 11.4133C2.3247 11.5176 2.331 11.6272 2.36839 11.7278C2.40579 11.8284 2.47254 11.9155 2.56001 11.9778C2.64748 12.0401 2.75163 12.0746 2.85897 12.077H4.64397V19.592C4.64157 19.8736 4.75079 20.1447 4.94776 20.346C5.14472 20.5472 5.41338 20.6623 5.69497 20.666H8.84697C9.12821 20.6623 9.39657 20.5475 9.59347 20.3467C9.79038 20.1458 9.89984 19.8753 9.89797 19.594V19.594Z" fill="#6A35EE"/>
</svg>
