<svg width="24" height="24" viewBox="0 0 24 24" fill="none" xmlns="http://www.w3.org/2000/svg">
<path d="M14 14C14.9889 14 15.9556 13.7068 16.7779 13.1573C17.6001 12.6079 18.241 11.827 18.6194 10.9134C18.9978 9.99979 19.0969 8.99446 18.9039 8.02455C18.711 7.05465 18.2348 6.16373 17.5355 5.46447C16.8363 4.76521 15.9454 4.289 14.9755 4.09608C14.0055 3.90315 13.0002 4.00217 12.0866 4.3806C11.173 4.75904 10.3921 5.3999 9.84265 6.22215C9.29325 7.0444 9 8.0111 9 9C9 10.3261 9.52678 11.5979 10.4645 12.5355C11.4021 13.4732 12.6739 14 14 14ZM14 16.5C10.6625 16.5 4 18.175 4 21.5V22.75C4 23.0815 4.1317 23.3995 4.36612 23.6339C4.60054 23.8683 4.91848 24 5.25 24H22.75C23.0815 24 23.3995 23.8683 23.6339 23.6339C23.8683 23.3995 24 23.0815 24 22.75V21.5C24 18.175 17.3375 16.5 14 16.5Z" fill="#6A35EE"/>
</svg>
