<svg xmlns="http://www.w3.org/2000/svg" width="24" height="24" fill="none" viewBox="0 0 24 24">
    <path fill="#6A35EE" d="M16.444 10.9H7.556c-.292 0-.572.116-.778.322-.206.207-.322.486-.322.778 0 .292.116.572.322.778.206.206.486.322.778.322h8.889c.292 0 .572-.116.778-.322.206-.207.322-.486.322-.778 0-.292-.116-.572-.322-.778-.206-.206-.486-.322-.778-.322h-.001zm3.333-7.7h-1.11V2.1c0-.295-.117-.577-.325-.786-.209-.208-.491-.325-.786-.325-.295 0-.577.117-.786.325-.208.209-.325.491-.325.786v1.1H7.556V2.1c0-.295-.117-.577-.325-.786C7.022 1.106 6.74.99 6.445.99c-.295 0-.577.117-.786.325-.208.209-.325.491-.325.786v1.1H4.222c-.29-.001-.578.054-.847.164-.269.11-.513.272-.72.476-.206.204-.37.447-.482.715C2.06 4.822 2 5.11 2 5.4v15.4c.001.29.06.578.172.845.113.268.277.51.483.715.207.204.451.366.72.476.269.11.557.166.847.164h15.556c.586.001 1.148-.23 1.565-.642.416-.412.652-.972.657-1.558V5.4c-.005-.586-.241-1.146-.657-1.558-.417-.412-.98-.643-1.565-.642h-.001zm-1.11 17.6H5.333c-.293 0-.574-.115-.782-.32-.208-.207-.327-.487-.329-.78v-11h15.556v11c-.002.293-.12.573-.329.78-.208.205-.49.32-.782.32zm-5.556-5.5H7.556c-.144 0-.287.028-.421.084-.133.055-.255.136-.357.238-.102.102-.183.224-.238.357-.056.134-.084.277-.084.421 0 .145.028.288.084.421.055.133.136.255.238.357.102.102.224.183.357.238.134.056.277.084.421.084h5.556c.145 0 .287-.028.421-.084.133-.055.255-.136.357-.238.102-.102.183-.224.238-.357.056-.134.084-.277.084-.421 0-.144-.028-.287-.084-.42-.055-.134-.136-.256-.238-.358-.102-.102-.224-.183-.357-.238-.133-.056-.276-.084-.421-.084h-.001z"/>
</svg>
