<svg xmlns="http://www.w3.org/2000/svg" width="24" height="24" fill="none" viewBox="0 0 24 24">
    <path fill="#000" fill-opacity=".5" d="M19.66 3.99c-1.188-.792-2.627-1.117-4.04-.914-1.414.203-2.702.92-3.62 2.014-.915-1.097-2.205-1.817-3.619-2.02-1.414-.203-2.854.125-4.041.92-.696.485-1.27 1.125-1.676 1.87-.406.744-.633 1.572-.664 2.42-.14 3.88 3.3 6.99 8.55 11.76l.1.09c.37.333.85.517 1.347.515.497-.002.976-.19 1.343-.525l.11-.1c5.25-4.76 8.68-7.87 8.55-11.75-.032-.846-.26-1.673-.666-2.415-.406-.743-.98-1.381-1.674-1.865zM12.1 18.55l-.1.1-.1-.1C7.14 14.24 4 11.39 4 8.5c-.011-.463.072-.923.243-1.353.172-.43.43-.82.757-1.147.327-.327.718-.585 1.147-.756.43-.172.89-.255 1.353-.244.76.004 1.503.229 2.137.648.634.42 1.132 1.014 1.433 1.712h1.87c.298-.698.794-1.294 1.427-1.713.632-.42 1.374-.644 2.133-.647.463-.011.923.072 1.352.244.43.171.82.429 1.148.756.327.327.584.718.756 1.147.172.43.255.89.244 1.353 0 2.89-3.14 5.74-7.9 10.05z"/>
</svg>
