<svg xmlns="http://www.w3.org/2000/svg" width="24" height="24" fill="none" viewBox="0 0 24 24">
    <path fill="#000" fill-opacity=".5" d="M9.898 19.594v-5.368h4.2v5.368c-.002.282.107.553.304.754.197.201.465.316.747.32h3.152c.282-.004.55-.119.747-.32.197-.201.306-.472.304-.754v-7.515h1.786c.108-.001.213-.035.3-.097.089-.063.156-.15.194-.251.037-.101.043-.211.017-.316-.026-.104-.083-.199-.164-.27l-8.781-8.083c-.192-.176-.443-.274-.704-.274-.26 0-.512.098-.704.274l-8.784 8.081c-.08.072-.136.166-.162.27-.025.105-.019.214.018.315.038.1.105.188.192.25.087.062.192.097.299.099h1.785v7.515c-.002.282.107.553.304.754.197.201.465.316.747.32h3.152c.281-.004.55-.119.746-.32.197-.2.307-.47.305-.752z"/>
</svg>
