<svg width="25" height="25" viewBox="0 0 25 25" fill="none" xmlns="http://www.w3.org/2000/svg">
<path d="M24.4047 8.68863L13.3347 19.7597C12.7024 20.3909 11.6743 20.3909 11.0412 19.7597C10.7255 19.4433 10.5679 19.0282 10.5679 18.6128C10.5679 18.1974 10.7255 17.7831 11.0412 17.4667L22.9163 5.59289C20.6769 2.22231 16.8483 0 12.4991 0C5.59561 0 0 5.59669 0 12.4993C0 13.8289 0.209319 15.109 0.594248 16.3108L11.6645 5.24004C12.2963 4.60773 13.3244 4.60773 13.9564 5.24004C14.2723 5.55592 14.4299 5.97102 14.4299 6.38613C14.4299 6.8015 14.2723 7.21688 13.9564 7.53276L2.08286 19.4071C4.32148 22.7771 8.15038 25 12.4991 25C19.4022 25 24.9978 19.403 24.9978 12.5001C24.9978 11.1706 24.7885 9.89099 24.4047 8.68863ZM6.38585 20.2338C5.95308 20.2338 5.54613 20.0661 5.24004 19.7597C4.60855 19.1279 4.60855 18.099 5.24004 17.467L17.4664 5.24031C18.0987 4.608 19.1271 4.608 19.7592 5.24031C20.0655 5.54613 20.2349 5.9539 20.2349 6.38694C20.2349 6.81944 20.0655 7.22612 19.7592 7.53303L7.53249 19.7597C7.22612 20.0652 6.8189 20.2338 6.38585 20.2338Z" fill="#6A35EE"/>
</svg>
