<svg xmlns="http://www.w3.org/2000/svg" width="24" height="24" fill="none" viewBox="0 0 24 24">
    <path fill="#6A35EE" d="M14 14c.989 0 1.956-.293 2.778-.843.822-.55 1.463-1.33 1.841-2.244.379-.913.478-1.919.285-2.888-.193-.97-.67-1.861-1.369-2.56-.699-.7-1.59-1.176-2.56-1.369-.97-.193-1.975-.094-2.888.285-.914.378-1.695 1.019-2.244 1.841C9.293 7.044 9 8.012 9 9c0 1.326.527 2.598 1.464 3.536C11.402 13.473 12.674 14 14 14zm0 2.5c-3.338 0-10 1.675-10 5v1.25c0 .331.132.65.366.884.235.234.552.366.884.366h17.5c.331 0 .65-.132.884-.366.234-.235.366-.553.366-.884V21.5c0-3.325-6.663-5-10-5z"/>
</svg>
