<svg width="16" height="16" viewBox="0 0 16 16" fill="none" xmlns="http://www.w3.org/2000/svg">
<g clip-path="url(#clip0)">
<path d="M10.1657 2.51709L2.21082 10.4723L5.52503 13.7865L13.4802 5.83165L10.1657 2.51709Z" fill="white"/>
<path d="M15.8627 2.78536L13.2108 0.133545C13.0351 -0.0422363 12.7238 -0.0422363 12.548 0.133545L10.8284 1.8532L14.143 5.16776L15.8627 3.4482C15.9506 3.3603 16 3.2413 16 3.1168C16 2.9923 15.9506 2.87326 15.8627 2.78536Z" fill="white"/>
<path d="M1.54752 11.1351L1.21587 11.4668C1.16002 11.5226 1.11884 11.5918 1.09684 11.6678L0.0178995 15.398C-0.0292567 15.5624 0.0160557 15.7391 0.136931 15.8599C0.226181 15.9492 0.345681 15.9973 0.468337 15.9973C0.511837 15.9973 0.555775 15.9913 0.598806 15.9789L4.32912 14.9C4.40512 14.878 4.47424 14.8368 4.53009 14.781L4.86174 14.4493L1.54752 11.1351Z" fill="white"/>
</g>
<defs>
<clipPath id="clip0">
<rect width="16" height="16" fill="white"/>
</clipPath>
</defs>
</svg>
